<svg width="154" height="26" fill="none" xmlns="http://www.w3.org/2000/svg"><path d="M13 0l2.919 8.983h9.445l-7.642 5.551 2.92 8.983L13 17.966l-7.641 5.551 2.918-8.983-7.64-5.551h9.444L13 0zm32 0l2.919 8.983h9.445l-7.642 5.551 2.92 8.983L45 17.966l-7.641 5.551 2.919-8.983-7.642-5.551h9.445L45 0zm32 0l2.919 8.983h9.445l-7.642 5.551 2.92 8.983L77 17.966l-7.641 5.551 2.919-8.983-7.642-5.551h9.445L77 0zm32 0l2.919 8.983h9.445l-7.641 5.551 2.918 8.983L109 17.966l-7.641 5.551 2.918-8.983-7.64-5.551h9.444L109 0zm32 0l2.919 8.983h9.445l-7.641 5.551 2.918 8.983L141 17.966l-7.641 5.551 2.918-8.983-7.641-5.551h9.445L141 0z" fill="#F4B600"/></svg>