<svg width="45" height="45" fill="none" xmlns="http://www.w3.org/2000/svg"><path d="M4.454 4.946h36.092v35.108H4.454V4.946z" fill="#0C0824"/><path d="M4.454 4.946h36.092v35.108H4.454V4.946zm-1.641 36.75h39.374V3.304H2.813v38.39zm26.545-22.641c-1.296 0-1.74.656-1.74 1.198 0 .59.296 1.001 2.036 1.902 2.576 1.248 3.375 2.444 3.375 4.2 0 2.626-2.002 4.037-4.709 4.037a7.138 7.138 0 01-3.363-.703c-.116-.05-.131-.131-.131-.263V27.01c0-.164.081-.213.197-.13a6.09 6.09 0 003.297.967c1.297 0 1.838-.541 1.838-1.28 0-.59-.376-1.115-2.034-1.969-2.33-1.115-3.298-2.25-3.298-4.134 0-2.116 1.657-3.871 4.528-3.871 1-.043 1.998.113 2.936.46a.362.362 0 01.165.327v2.25c0 .131-.082.214-.246.165a5.541 5.541 0 00-2.855-.738l.004-.003zm-14.11 1.952c.377.032.672.032 1.329.032 1.92 0 3.724-.672 3.724-3.28 0-2.085-1.297-3.134-3.478-3.134-.657 0-1.28.032-1.575.05v6.332zm-2.92-8.72c0-.115.228-.196.36-.196a98.094 98.094 0 014.233-.082c4.545 0 6.317 2.494 6.317 5.677 0 4.167-3.019 5.956-6.726 5.956-.623 0-.837-.032-1.28-.032v6.3c0 .13-.049.196-.196.196h-2.51c-.131 0-.197-.049-.197-.197V12.296l-.002-.007z" fill="#31C5F0"/></svg>