<svg width="270" height="45" fill="none" xmlns="http://www.w3.org/2000/svg"><path d="M4.454 4.946h36.092v35.108H4.454V4.946z" fill="#0C0824"/><path d="M4.454 4.946h36.092v35.108H4.454V4.946zm-1.641 36.75h39.374V3.304H2.813v38.39zm26.545-22.641c-1.296 0-1.74.656-1.74 1.198 0 .59.296 1.001 2.036 1.902 2.576 1.248 3.375 2.444 3.375 4.2 0 2.626-2.002 4.037-4.709 4.037a7.138 7.138 0 01-3.363-.703c-.116-.05-.131-.131-.131-.263V27.01c0-.164.081-.213.197-.13a6.09 6.09 0 003.297.967c1.297 0 1.838-.541 1.838-1.28 0-.59-.376-1.115-2.034-1.969-2.33-1.115-3.298-2.25-3.298-4.134 0-2.116 1.657-3.871 4.528-3.871 1-.043 1.998.113 2.936.46a.362.362 0 01.165.327v2.25c0 .131-.082.214-.246.165a5.541 5.541 0 00-2.855-.738l.004-.003zm-14.11 1.952c.377.032.672.032 1.329.032 1.92 0 3.724-.672 3.724-3.28 0-2.085-1.297-3.134-3.478-3.134-.657 0-1.28.032-1.575.05v6.332zm-2.92-8.72c0-.115.228-.196.36-.196a98.094 98.094 0 014.233-.082c4.545 0 6.317 2.494 6.317 5.677 0 4.167-3.019 5.956-6.726 5.956-.623 0-.837-.032-1.28-.032v6.3c0 .13-.049.196-.196.196h-2.51c-.131 0-.197-.049-.197-.197V12.296l-.002-.007z" fill="#31C5F0"/><path fill="#C4C4C4" d="M60 32h210v8H60z"/><path fill="#FB3F5C" d="M60 32h152v8H60z"/><path d="M185.568 25l4.592-8.876h-5.222v-.994h6.524v.868L186.842 25h-1.274zm11.027.126c-1.13 0-1.988-.434-2.576-1.302-.588-.868-.882-2.123-.882-3.766 0-1.652.294-2.907.882-3.766.588-.859 1.446-1.288 2.576-1.288 1.138 0 1.997.43 2.576 1.288.588.85.882 2.1.882 3.752 0 1.652-.299 2.912-.896 3.78-.588.868-1.442 1.302-2.562 1.302zm0-.994c.784 0 1.362-.331 1.736-.994.382-.663.574-1.694.574-3.094s-.187-2.422-.56-3.066c-.374-.653-.957-.98-1.75-.98-.784 0-1.368.327-1.75.98-.374.653-.56 1.675-.56 3.066 0 1.4.186 2.431.56 3.094.382.663.966.994 1.75.994zm8.198 1.218l-.798-.462 5.81-10.108.784.462-5.796 10.108zm-.84-4.298c-.747 0-1.33-.266-1.75-.798-.42-.532-.63-1.274-.63-2.226s.21-1.69.63-2.212c.42-.532 1.003-.798 1.75-.798.737 0 1.316.266 1.736.798.429.523.644 1.26.644 2.212 0 .952-.215 1.694-.644 2.226-.42.532-.999.798-1.736.798zm0-.826c.429 0 .77-.182 1.022-.546.252-.373.378-.924.378-1.652 0-.728-.126-1.274-.378-1.638-.252-.364-.593-.546-1.022-.546-.439 0-.784.182-1.036.546-.243.364-.364.91-.364 1.638 0 .728.121 1.279.364 1.652.252.364.597.546 1.036.546zm6.692 4.9c-.737 0-1.321-.266-1.75-.798-.42-.532-.63-1.274-.63-2.226 0-.943.21-1.68.63-2.212.429-.532 1.013-.798 1.75-.798.747 0 1.33.266 1.75.798.42.532.63 1.27.63 2.212 0 .952-.21 1.694-.63 2.226-.42.532-1.003.798-1.75.798zm0-.826a1.16 1.16 0 001.022-.546c.252-.373.378-.924.378-1.652 0-.728-.126-1.274-.378-1.638a1.16 1.16 0 00-1.022-.546c-.429 0-.77.182-1.022.546-.243.364-.364.91-.364 1.638 0 .737.121 1.288.364 1.652.252.364.593.546 1.022.546z" fill="#000"/></svg>