<svg width="24" height="23" fill="none" xmlns="http://www.w3.org/2000/svg"><path d="M12 .689C5.373.689 0 5.684 0 11.844 0 18.004 5.373 23 12 23s12-4.995 12-11.156C24 5.684 18.627.69 12 .69zm5.767 8.409c.008.117.008.239.008.358 0 3.656-2.995 7.866-8.467 7.866a8.909 8.909 0 01-4.57-1.24c.241.025.472.035.718.035a6.262 6.262 0 003.694-1.18c-1.307-.025-2.405-.822-2.78-1.917a3.5 3.5 0 001.342-.05A3.02 3.02 0 016 12.008a2.646 2.646 0 01-.67-1.752v-.035a3.15 3.15 0 001.342.35 2.852 2.852 0 01-.973-.995 2.614 2.614 0 01-.353-1.305c0-.515.145-.986.405-1.394a8.36 8.36 0 002.736 2.052 8.95 8.95 0 003.398.839c-.42-1.88 1.09-3.402 2.906-3.402.857 0 1.629.334 2.172.872a6.156 6.156 0 001.889-.665 2.8 2.8 0 01-1.307 1.521c.6-.06 1.178-.214 1.714-.43a6.013 6.013 0 01-1.492 1.434z" fill="#F8EEEF"/></svg>