<svg width="35" height="23" fill="none" xmlns="http://www.w3.org/2000/svg"><path d="M33.676 4.174a3.934 3.934 0 00-1.108-1.785 4.377 4.377 0 00-1.918-1.032C27.978.689 17.27.689 17.27.689s-10.708 0-13.38.664a4.37 4.37 0 00-1.919 1.032A3.927 3.927 0 00.864 4.171C.149 6.657.149 11.844.149 11.844s0 5.187.715 7.67c.393 1.372 1.555 2.452 3.026 2.818C6.562 23 17.27 23 17.27 23s10.708 0 13.38-.668c1.475-.366 2.633-1.446 3.026-2.818.715-2.483.715-7.67.715-7.67s0-5.187-.715-7.67zM13.87 16.604v-9.52l8.866 4.725-8.866 4.796z" fill="#F8EEEF"/></svg>