<svg width="24" height="23" fill="none" xmlns="http://www.w3.org/2000/svg"><path d="M12 .689C5.372.689 0 5.682 0 11.844 0 18.007 5.371 23 12 23c6.63 0 12-4.993 12-11.156C24 5.682 18.63.69 12 .69zm8.202 15.244c-.17.364-.876.63-2.168.819-.067.085-.12.44-.208.715-.053.166-.179.265-.392.265h-.01c-.3 0-.619-.13-1.248-.13-.851 0-1.146.18-1.81.616-.701.463-1.374.86-2.38.819-1.016.072-1.868-.504-2.347-.819-.668-.436-.958-.616-1.81-.616-.604 0-.987.14-1.248.14s-.363-.15-.401-.27c-.088-.275-.14-.635-.209-.72-.667-.095-2.167-.338-2.201-.963a.324.324 0 01.285-.333c2.24-.342 3.247-2.478 3.29-2.568 0-.005.005-.01.01-.014.121-.225.145-.414.078-.562-.165-.355-.866-.481-1.162-.594-.764-.279-.87-.602-.822-.823.077-.382.697-.62 1.06-.463.285.126.541.189.76.189a.72.72 0 00.319-.063c-.068-1.075-.228-2.61.183-3.468 1.09-2.263 3.392-2.443 4.07-2.443l.324-.004c1.679 0 3.29.8 4.079 2.442.411.86.252 2.389.184 3.468.053.027.14.059.276.063.208-.009.445-.072.711-.189.194-.085.465-.072.658 0 .305.104.498.306.503.536.005.292-.276.544-.832.746-.068.027-.15.05-.237.077-.315.094-.794.234-.92.517-.067.148-.038.337.078.562.005.005.005.01.01.014.043.09 1.05 2.226 3.29 2.568.194.045.344.248.237.486z" fill="#F8EEEF"/></svg>