<svg width="45" height="45" viewBox="0 0 45 45" fill="none" xmlns="http://www.w3.org/2000/svg">
<path d="M4.45642 4.9458H40.5492V40.0542H4.45642V4.9458Z" fill="#1C0A00"/>
<path d="M4.45641 4.94578H40.5492V40.0542H4.45641V4.94578ZM2.8125 41.6953H42.1875V3.30469H2.8125V41.6953ZM28.6031 16.9875C28.6031 16.8567 28.6523 16.7906 28.8 16.7906H31.3763C31.507 16.7906 31.5731 16.8398 31.5731 16.9875V29.932C31.5731 30.0628 31.5408 30.1289 31.3763 30.1289H28.8352C28.6706 30.1289 28.6214 30.0473 28.6214 29.9152V16.9875H28.6045H28.6031ZM28.4231 13.2638C28.4231 12.8199 28.5994 12.3943 28.9133 12.0805C29.2271 11.7666 29.6527 11.5903 30.0966 11.5903C30.5404 11.5903 30.966 11.7666 31.2799 12.0805C31.5937 12.3943 31.77 12.8199 31.77 13.2638C31.7862 13.4905 31.753 13.718 31.6725 13.9306C31.5921 14.1432 31.4663 14.3357 31.3041 14.4949C31.1418 14.6541 30.9469 14.7761 30.7328 14.8525C30.5187 14.9288 30.2906 14.9577 30.0642 14.9372C29.8424 14.9511 29.6202 14.9171 29.4128 14.8374C29.2053 14.7577 29.0175 14.6343 28.862 14.4755C28.7066 14.3167 28.5871 14.1263 28.5119 13.9172C28.4366 13.7081 28.4073 13.4852 28.4259 13.2638H28.4231ZM21.0403 22.3861C20.5805 20.558 19.4934 16.5952 19.0884 14.6756H19.0561C18.7116 16.5952 17.8425 19.8436 17.1534 22.3861H21.0403ZM16.4798 25.0439L15.1833 29.9658C15.1509 30.0966 15.1017 30.1303 14.9372 30.1303H12.5283C12.3638 30.1303 12.3314 30.0811 12.3637 29.8842L17.0227 13.5717C17.1361 13.127 17.1914 12.6694 17.1872 12.2105C17.1872 12.0952 17.2364 12.0459 17.318 12.0459H20.7633C20.8786 12.0459 20.9278 12.0783 20.9602 12.2105L26.1773 29.9123C26.2097 30.0431 26.1773 30.1261 26.0466 30.1261H23.3227C23.1919 30.1261 23.1089 30.0937 23.0766 29.9855L21.7308 25.0467H16.4813L16.4798 25.0439Z" fill="#FF7F18"/>
</svg>
