<svg width="154" height="26" viewBox="0 0 154 26" fill="none" xmlns="http://www.w3.org/2000/svg">
<path d="M13 0L15.9187 8.98278H25.3637L17.7225 14.5344L20.6412 23.5172L13 17.9656L5.35879 23.5172L8.27747 14.5344L0.636266 8.98278H10.0813L13 0Z" fill="#F4B600"/>
<path d="M45 0L47.9187 8.98278H57.3637L49.7225 14.5344L52.6412 23.5172L45 17.9656L37.3588 23.5172L40.2775 14.5344L32.6363 8.98278H42.0813L45 0Z" fill="#F4B600"/>
<path d="M77 0L79.9187 8.98278H89.3637L81.7225 14.5344L84.6412 23.5172L77 17.9656L69.3588 23.5172L72.2775 14.5344L64.6363 8.98278H74.0813L77 0Z" fill="#F4B600"/>
<path d="M109 0L111.919 8.98278H121.364L113.723 14.5344L116.641 23.5172L109 17.9656L101.359 23.5172L104.277 14.5344L96.6363 8.98278H106.081L109 0Z" fill="#F4B600"/>
<path d="M141 0L143.919 8.98278H153.364L145.723 14.5344L148.641 23.5172L141 17.9656L133.359 23.5172L136.277 14.5344L128.636 8.98278H138.081L141 0Z" fill="#F4B600"/>
</svg>
