<svg width="272" height="45" viewBox="0 0 272 45" fill="none" xmlns="http://www.w3.org/2000/svg">
<path d="M4.45642 4.9458H40.5492V40.0542H4.45642V4.9458Z" fill="#1C0A00"/>
<path d="M4.45641 4.94578H40.5492V40.0542H4.45641V4.94578ZM2.8125 41.6953H42.1875V3.30469H2.8125V41.6953ZM28.6031 16.9875C28.6031 16.8567 28.6523 16.7906 28.8 16.7906H31.3763C31.507 16.7906 31.5731 16.8398 31.5731 16.9875V29.932C31.5731 30.0628 31.5408 30.1289 31.3763 30.1289H28.8352C28.6706 30.1289 28.6214 30.0473 28.6214 29.9152V16.9875H28.6045H28.6031ZM28.4231 13.2638C28.4231 12.8199 28.5994 12.3943 28.9133 12.0805C29.2271 11.7666 29.6527 11.5903 30.0966 11.5903C30.5404 11.5903 30.966 11.7666 31.2799 12.0805C31.5937 12.3943 31.77 12.8199 31.77 13.2638C31.7862 13.4905 31.753 13.718 31.6725 13.9306C31.5921 14.1432 31.4663 14.3357 31.3041 14.4949C31.1418 14.6541 30.9469 14.7761 30.7328 14.8525C30.5187 14.9288 30.2906 14.9577 30.0642 14.9372C29.8424 14.9511 29.6202 14.9171 29.4128 14.8374C29.2053 14.7577 29.0175 14.6343 28.862 14.4755C28.7066 14.3167 28.5871 14.1263 28.5119 13.9172C28.4366 13.7081 28.4073 13.4852 28.4259 13.2638H28.4231ZM21.0403 22.3861C20.5805 20.558 19.4934 16.5952 19.0884 14.6756H19.0561C18.7116 16.5952 17.8425 19.8436 17.1534 22.3861H21.0403ZM16.4798 25.0439L15.1833 29.9658C15.1509 30.0966 15.1017 30.1303 14.9372 30.1303H12.5283C12.3638 30.1303 12.3314 30.0811 12.3637 29.8842L17.0227 13.5717C17.1361 13.127 17.1914 12.6694 17.1872 12.2105C17.1872 12.0952 17.2364 12.0459 17.318 12.0459H20.7633C20.8786 12.0459 20.9278 12.0783 20.9602 12.2105L26.1773 29.9123C26.2097 30.0431 26.1773 30.1261 26.0466 30.1261H23.3227C23.1919 30.1261 23.1089 30.0937 23.0766 29.9855L21.7308 25.0467H16.4813L16.4798 25.0439Z" fill="#FF7F18"/>
<rect x="62" y="32" width="210" height="8" fill="#C4C4C4"/>
<rect x="62" y="32" width="168" height="8" fill="#FB3F5C"/>
<path d="M206.2 27.126C205.089 27.126 204.226 26.888 203.61 26.412C202.994 25.9267 202.686 25.25 202.686 24.382C202.686 23.7753 202.849 23.2573 203.176 22.828C203.512 22.3987 203.955 22.1047 204.506 21.946C204.011 21.7593 203.624 21.4607 203.344 21.05C203.064 20.6393 202.924 20.168 202.924 19.636C202.924 18.8053 203.218 18.1613 203.806 17.704C204.403 17.2373 205.201 17.004 206.2 17.004C207.199 17.004 207.997 17.2373 208.594 17.704C209.191 18.1613 209.49 18.8053 209.49 19.636C209.49 20.168 209.345 20.644 209.056 21.064C208.776 21.4747 208.393 21.7687 207.908 21.946C208.459 22.1047 208.897 22.3987 209.224 22.828C209.551 23.2573 209.714 23.7753 209.714 24.382C209.714 25.25 209.406 25.9267 208.79 26.412C208.174 26.888 207.311 27.126 206.2 27.126ZM206.2 21.526C206.881 21.526 207.413 21.3673 207.796 21.05C208.188 20.7233 208.384 20.2847 208.384 19.734C208.384 19.174 208.188 18.74 207.796 18.432C207.413 18.1147 206.881 17.956 206.2 17.956C205.519 17.956 204.987 18.1147 204.604 18.432C204.221 18.74 204.03 19.174 204.03 19.734C204.03 20.2847 204.221 20.7233 204.604 21.05C204.987 21.3673 205.519 21.526 206.2 21.526ZM206.2 26.174C207.805 26.174 208.608 25.5533 208.608 24.312C208.608 23.0893 207.805 22.478 206.2 22.478C204.595 22.478 203.792 23.0893 203.792 24.312C203.792 25.5533 204.595 26.174 206.2 26.174ZM214.595 27.126C213.465 27.126 212.607 26.692 212.019 25.824C211.431 24.956 211.137 23.7007 211.137 22.058C211.137 20.406 211.431 19.1507 212.019 18.292C212.607 17.4333 213.465 17.004 214.595 17.004C215.733 17.004 216.592 17.4333 217.171 18.292C217.759 19.1413 218.053 20.392 218.053 22.044C218.053 23.696 217.754 24.956 217.157 25.824C216.569 26.692 215.715 27.126 214.595 27.126ZM214.595 26.132C215.379 26.132 215.957 25.8007 216.331 25.138C216.713 24.4753 216.905 23.444 216.905 22.044C216.905 20.644 216.718 19.622 216.345 18.978C215.971 18.3247 215.388 17.998 214.595 17.998C213.811 17.998 213.227 18.3247 212.845 18.978C212.471 19.6313 212.285 20.6533 212.285 22.044C212.285 23.444 212.471 24.4753 212.845 25.138C213.227 25.8007 213.811 26.132 214.595 26.132ZM222.793 27.35L221.995 26.888L227.805 16.78L228.589 17.242L222.793 27.35ZM221.953 23.052C221.206 23.052 220.623 22.786 220.203 22.254C219.783 21.722 219.573 20.98 219.573 20.028C219.573 19.076 219.783 18.3387 220.203 17.816C220.623 17.284 221.206 17.018 221.953 17.018C222.69 17.018 223.269 17.284 223.689 17.816C224.118 18.3387 224.333 19.076 224.333 20.028C224.333 20.98 224.118 21.722 223.689 22.254C223.269 22.786 222.69 23.052 221.953 23.052ZM221.953 22.226C222.382 22.226 222.723 22.044 222.975 21.68C223.227 21.3067 223.353 20.756 223.353 20.028C223.353 19.3 223.227 18.754 222.975 18.39C222.723 18.026 222.382 17.844 221.953 17.844C221.514 17.844 221.169 18.026 220.917 18.39C220.674 18.754 220.553 19.3 220.553 20.028C220.553 20.756 220.674 21.3067 220.917 21.68C221.169 22.044 221.514 22.226 221.953 22.226ZM228.645 27.126C227.908 27.126 227.324 26.86 226.895 26.328C226.475 25.796 226.265 25.054 226.265 24.102C226.265 23.1593 226.475 22.422 226.895 21.89C227.324 21.358 227.908 21.092 228.645 21.092C229.392 21.092 229.975 21.358 230.395 21.89C230.815 22.422 231.025 23.1593 231.025 24.102C231.025 25.054 230.815 25.796 230.395 26.328C229.975 26.86 229.392 27.126 228.645 27.126ZM228.645 26.3C229.084 26.3 229.424 26.118 229.667 25.754C229.919 25.3807 230.045 24.83 230.045 24.102C230.045 23.374 229.919 22.828 229.667 22.464C229.424 22.1 229.084 21.918 228.645 21.918C228.216 21.918 227.875 22.1 227.623 22.464C227.38 22.828 227.259 23.374 227.259 24.102C227.259 24.8393 227.38 25.39 227.623 25.754C227.875 26.118 228.216 26.3 228.645 26.3Z" fill="#191018"/>
</svg>
