<svg width="270" height="45" viewBox="0 0 270 45" fill="none" xmlns="http://www.w3.org/2000/svg">
<path d="M4.45358 4.9458H40.5464V40.0542H4.45358V4.9458Z" fill="#0C0824"/>
<path d="M4.45359 4.94578H40.5464V40.0542H4.45359V4.94578ZM2.8125 41.6953H42.1875V3.30469H2.8125V41.6953ZM29.3583 19.0547C28.0617 19.0547 27.6187 19.7114 27.6187 20.2528C27.6187 20.8434 27.9141 21.2541 29.6536 22.1555C32.2298 23.4028 33.0286 24.5995 33.0286 26.3559C33.0286 28.9814 31.0275 30.3919 28.3205 30.3919C27.1587 30.4349 26.004 30.1936 24.9567 29.6887C24.8414 29.6395 24.8259 29.558 24.8259 29.4258V27.0112C24.8259 26.8467 24.9075 26.7975 25.0228 26.8805C26.0063 27.5129 27.1512 27.8488 28.3205 27.848C29.617 27.848 30.1584 27.3066 30.1584 26.5683C30.1584 25.9777 29.7816 25.4531 28.1236 24.5995C25.7934 23.4844 24.8259 22.3495 24.8259 20.4652C24.8259 18.3488 26.4825 16.5938 29.3541 16.5938C30.3536 16.5508 31.3517 16.7071 32.2903 17.0536C32.3444 17.0887 32.3881 17.1375 32.417 17.1951C32.4459 17.2527 32.459 17.3169 32.4548 17.3813V19.6313C32.4548 19.762 32.3733 19.845 32.2087 19.7958C31.3413 19.2964 30.3548 19.0413 29.3541 19.0575L29.3583 19.0547ZM15.248 21.0066C15.6248 21.0389 15.9202 21.0389 16.5769 21.0389C18.4964 21.0389 20.3006 20.3667 20.3006 17.7581C20.3006 15.6741 19.0041 14.625 16.823 14.625C16.1663 14.625 15.5433 14.6573 15.248 14.6742V21.0066ZM12.3272 12.2878C12.3272 12.1725 12.5564 12.0909 12.6886 12.0909C14.0988 12.0333 15.51 12.0061 16.9214 12.0094C21.4664 12.0094 23.2383 14.5027 23.2383 17.6864C23.2383 21.8531 20.2191 23.6419 16.5122 23.6419C15.8892 23.6419 15.6755 23.6095 15.2325 23.6095V29.9095C15.2325 30.0403 15.1833 30.1064 15.0356 30.1064H12.5255C12.3947 30.1064 12.3286 30.0572 12.3286 29.9095V12.2948L12.3272 12.2878Z" fill="#31C5F0"/>
<rect x="60" y="32" width="210" height="8" fill="#C4C4C4"/>
<rect x="60" y="32" width="152" height="8" fill="#FB3F5C"/>
<path d="M185.568 25L190.16 16.124H184.938V15.13H191.462V15.998L186.842 25H185.568ZM196.595 25.126C195.465 25.126 194.607 24.692 194.019 23.824C193.431 22.956 193.137 21.7007 193.137 20.058C193.137 18.406 193.431 17.1507 194.019 16.292C194.607 15.4333 195.465 15.004 196.595 15.004C197.733 15.004 198.592 15.4333 199.171 16.292C199.759 17.1413 200.053 18.392 200.053 20.044C200.053 21.696 199.754 22.956 199.157 23.824C198.569 24.692 197.715 25.126 196.595 25.126ZM196.595 24.132C197.379 24.132 197.957 23.8007 198.331 23.138C198.713 22.4753 198.905 21.444 198.905 20.044C198.905 18.644 198.718 17.622 198.345 16.978C197.971 16.3247 197.388 15.998 196.595 15.998C195.811 15.998 195.227 16.3247 194.845 16.978C194.471 17.6313 194.285 18.6533 194.285 20.044C194.285 21.444 194.471 22.4753 194.845 23.138C195.227 23.8007 195.811 24.132 196.595 24.132ZM204.793 25.35L203.995 24.888L209.805 14.78L210.589 15.242L204.793 25.35ZM203.953 21.052C203.206 21.052 202.623 20.786 202.203 20.254C201.783 19.722 201.573 18.98 201.573 18.028C201.573 17.076 201.783 16.3387 202.203 15.816C202.623 15.284 203.206 15.018 203.953 15.018C204.69 15.018 205.269 15.284 205.689 15.816C206.118 16.3387 206.333 17.076 206.333 18.028C206.333 18.98 206.118 19.722 205.689 20.254C205.269 20.786 204.69 21.052 203.953 21.052ZM203.953 20.226C204.382 20.226 204.723 20.044 204.975 19.68C205.227 19.3067 205.353 18.756 205.353 18.028C205.353 17.3 205.227 16.754 204.975 16.39C204.723 16.026 204.382 15.844 203.953 15.844C203.514 15.844 203.169 16.026 202.917 16.39C202.674 16.754 202.553 17.3 202.553 18.028C202.553 18.756 202.674 19.3067 202.917 19.68C203.169 20.044 203.514 20.226 203.953 20.226ZM210.645 25.126C209.908 25.126 209.324 24.86 208.895 24.328C208.475 23.796 208.265 23.054 208.265 22.102C208.265 21.1593 208.475 20.422 208.895 19.89C209.324 19.358 209.908 19.092 210.645 19.092C211.392 19.092 211.975 19.358 212.395 19.89C212.815 20.422 213.025 21.1593 213.025 22.102C213.025 23.054 212.815 23.796 212.395 24.328C211.975 24.86 211.392 25.126 210.645 25.126ZM210.645 24.3C211.084 24.3 211.424 24.118 211.667 23.754C211.919 23.3807 212.045 22.83 212.045 22.102C212.045 21.374 211.919 20.828 211.667 20.464C211.424 20.1 211.084 19.918 210.645 19.918C210.216 19.918 209.875 20.1 209.623 20.464C209.38 20.828 209.259 21.374 209.259 22.102C209.259 22.8393 209.38 23.39 209.623 23.754C209.875 24.118 210.216 24.3 210.645 24.3Z" fill="black"/>
</svg>
