<svg width="45" height="45" viewBox="0 0 45 45" fill="none" xmlns="http://www.w3.org/2000/svg">
<path d="M4.45358 4.9458H40.5464V40.0542H4.45358V4.9458Z" fill="#0C0824"/>
<path d="M4.45359 4.94578H40.5464V40.0542H4.45359V4.94578ZM2.8125 41.6953H42.1875V3.30469H2.8125V41.6953ZM29.3583 19.0547C28.0617 19.0547 27.6187 19.7114 27.6187 20.2528C27.6187 20.8434 27.9141 21.2541 29.6536 22.1555C32.2298 23.4028 33.0286 24.5995 33.0286 26.3559C33.0286 28.9814 31.0275 30.3919 28.3205 30.3919C27.1587 30.4349 26.004 30.1936 24.9567 29.6887C24.8414 29.6395 24.8259 29.558 24.8259 29.4258V27.0112C24.8259 26.8467 24.9075 26.7975 25.0228 26.8805C26.0063 27.5129 27.1512 27.8488 28.3205 27.848C29.617 27.848 30.1584 27.3066 30.1584 26.5683C30.1584 25.9777 29.7816 25.4531 28.1236 24.5995C25.7934 23.4844 24.8259 22.3495 24.8259 20.4652C24.8259 18.3488 26.4825 16.5938 29.3541 16.5938C30.3536 16.5508 31.3517 16.7071 32.2903 17.0536C32.3444 17.0887 32.3881 17.1375 32.417 17.1951C32.4459 17.2527 32.459 17.3169 32.4548 17.3813V19.6313C32.4548 19.762 32.3733 19.845 32.2087 19.7958C31.3413 19.2964 30.3548 19.0413 29.3541 19.0575L29.3583 19.0547ZM15.248 21.0066C15.6248 21.0389 15.9202 21.0389 16.5769 21.0389C18.4964 21.0389 20.3006 20.3667 20.3006 17.7581C20.3006 15.6741 19.0041 14.625 16.823 14.625C16.1663 14.625 15.5433 14.6573 15.248 14.6742V21.0066ZM12.3272 12.2878C12.3272 12.1725 12.5564 12.0909 12.6886 12.0909C14.0988 12.0333 15.51 12.0061 16.9214 12.0094C21.4664 12.0094 23.2383 14.5027 23.2383 17.6864C23.2383 21.8531 20.2191 23.6419 16.5122 23.6419C15.8892 23.6419 15.6755 23.6095 15.2325 23.6095V29.9095C15.2325 30.0403 15.1833 30.1064 15.0356 30.1064H12.5255C12.3947 30.1064 12.3286 30.0572 12.3286 29.9095V12.2948L12.3272 12.2878Z" fill="#31C5F0"/>
</svg>
