<svg width="110" height="86" viewBox="0 0 110 86" fill="none" xmlns="http://www.w3.org/2000/svg">
<path d="M46.9456 6.13191L42.9568 0C15.3417 18.549 0 41.0838 0 59.6328C0 77.5686 13.1939 86 24.3933 86C38.5077 86 48.4798 74.0428 48.4798 61.4724C48.4798 50.8948 41.7294 41.8503 32.6778 38.4777C30.0697 37.5579 27.6151 36.7914 27.6151 32.3458C27.6151 26.6738 31.7573 18.2424 46.9456 6.13191ZM107.852 6.13191L103.863 0C76.5551 18.549 60.9066 41.0838 60.9066 59.6328C60.9066 77.5686 74.4073 86 85.6067 86C99.8745 86 110 74.0428 110 61.4724C110 50.8948 103.096 41.8503 93.7378 38.4777C91.1297 37.5579 88.8285 36.7914 88.8285 32.3458C88.8285 26.6738 93.1241 18.2424 107.852 6.13191Z" fill="#FEC5CE"/>
</svg>
