<svg width="45" height="45" fill="none" xmlns="http://www.w3.org/2000/svg"><path d="M4.456 4.946H40.55v35.108H4.456V4.946z" fill="#1C0A00"/><path d="M4.456 4.946H40.55v35.108H4.456V4.946zm-1.644 36.75h39.376V3.304H2.812v38.39zm25.791-24.708c0-.131.05-.197.197-.197h2.576c.131 0 .197.049.197.197v12.944c0 .13-.032.197-.197.197h-2.54c-.165 0-.215-.082-.215-.214V16.988h-.018zm-.18-3.724a1.673 1.673 0 113.347 0 1.567 1.567 0 01-1.706 1.673 1.546 1.546 0 01-1.638-1.673h-.003zm-7.383 9.122c-.46-1.828-1.547-5.79-1.952-7.71h-.032c-.344 1.92-1.213 5.168-1.903 7.71h3.887zm-4.56 2.658l-1.297 4.922c-.032.13-.081.164-.246.164h-2.409c-.164 0-.197-.049-.164-.246l4.659-16.312c.113-.445.168-.903.164-1.361 0-.116.05-.165.131-.165h3.445c.116 0 .165.032.197.165l5.217 17.701c.033.131 0 .214-.13.214h-2.724c-.131 0-.214-.032-.246-.14l-1.346-4.94h-5.25l-.001-.002z" fill="#FF7F18"/></svg>