<svg width="272" height="45" fill="none" xmlns="http://www.w3.org/2000/svg"><path d="M4.456 4.946H40.55v35.108H4.456V4.946z" fill="#1C0A00"/><path d="M4.456 4.946H40.55v35.108H4.456V4.946zm-1.644 36.75h39.376V3.304H2.812v38.39zm25.791-24.708c0-.131.05-.197.197-.197h2.576c.131 0 .197.049.197.197v12.944c0 .13-.032.197-.197.197h-2.54c-.165 0-.215-.082-.215-.214V16.988h-.018zm-.18-3.724a1.673 1.673 0 113.347 0 1.567 1.567 0 01-1.706 1.673 1.546 1.546 0 01-1.638-1.673h-.003zm-7.383 9.122c-.46-1.828-1.547-5.79-1.952-7.71h-.032c-.344 1.92-1.213 5.168-1.903 7.71h3.887zm-4.56 2.658l-1.297 4.922c-.032.13-.081.164-.246.164h-2.409c-.164 0-.197-.049-.164-.246l4.659-16.312c.113-.445.168-.903.164-1.361 0-.116.05-.165.131-.165h3.445c.116 0 .165.032.197.165l5.217 17.701c.033.131 0 .214-.13.214h-2.724c-.131 0-.214-.032-.246-.14l-1.346-4.94h-5.25l-.001-.002z" fill="#FF7F18"/><path fill="#C4C4C4" d="M62 32h210v8H62z"/><path fill="#FB3F5C" d="M62 32h168v8H62z"/><path d="M206.2 27.126c-1.111 0-1.974-.238-2.59-.714-.616-.485-.924-1.162-.924-2.03 0-.607.163-1.125.49-1.554a2.53 2.53 0 011.33-.882 2.382 2.382 0 01-1.162-.896 2.45 2.45 0 01-.42-1.414c0-.83.294-1.475.882-1.932.597-.467 1.395-.7 2.394-.7.999 0 1.797.233 2.394.7.597.457.896 1.101.896 1.932a2.46 2.46 0 01-.434 1.428c-.28.41-.663.705-1.148.882.551.159.989.453 1.316.882.327.43.49.947.49 1.554 0 .868-.308 1.545-.924 2.03-.616.476-1.479.714-2.59.714zm0-5.6c.681 0 1.213-.159 1.596-.476.392-.327.588-.765.588-1.316 0-.56-.196-.994-.588-1.302-.383-.317-.915-.476-1.596-.476s-1.213.159-1.596.476c-.383.308-.574.742-.574 1.302 0 .55.191.99.574 1.316.383.317.915.476 1.596.476zm0 4.648c1.605 0 2.408-.62 2.408-1.862 0-1.223-.803-1.834-2.408-1.834s-2.408.611-2.408 1.834c0 1.241.803 1.862 2.408 1.862zm8.395.952c-1.13 0-1.988-.434-2.576-1.302-.588-.868-.882-2.123-.882-3.766 0-1.652.294-2.907.882-3.766.588-.859 1.446-1.288 2.576-1.288 1.138 0 1.997.43 2.576 1.288.588.85.882 2.1.882 3.752 0 1.652-.299 2.912-.896 3.78-.588.868-1.442 1.302-2.562 1.302zm0-.994c.784 0 1.362-.331 1.736-.994.382-.663.574-1.694.574-3.094s-.187-2.422-.56-3.066c-.374-.653-.957-.98-1.75-.98-.784 0-1.368.327-1.75.98-.374.653-.56 1.675-.56 3.066 0 1.4.186 2.431.56 3.094.382.663.966.994 1.75.994zm8.198 1.218l-.798-.462 5.81-10.108.784.462-5.796 10.108zm-.84-4.298c-.747 0-1.33-.266-1.75-.798-.42-.532-.63-1.274-.63-2.226s.21-1.69.63-2.212c.42-.532 1.003-.798 1.75-.798.737 0 1.316.266 1.736.798.429.523.644 1.26.644 2.212 0 .952-.215 1.694-.644 2.226-.42.532-.999.798-1.736.798zm0-.826c.429 0 .77-.182 1.022-.546.252-.373.378-.924.378-1.652 0-.728-.126-1.274-.378-1.638-.252-.364-.593-.546-1.022-.546-.439 0-.784.182-1.036.546-.243.364-.364.91-.364 1.638 0 .728.121 1.279.364 1.652.252.364.597.546 1.036.546zm6.692 4.9c-.737 0-1.321-.266-1.75-.798-.42-.532-.63-1.274-.63-2.226 0-.943.21-1.68.63-2.212.429-.532 1.013-.798 1.75-.798.747 0 1.33.266 1.75.798.42.532.63 1.27.63 2.212 0 .952-.21 1.694-.63 2.226-.42.532-1.003.798-1.75.798zm0-.826a1.16 1.16 0 001.022-.546c.252-.373.378-.924.378-1.652 0-.728-.126-1.274-.378-1.638a1.16 1.16 0 00-1.022-.546c-.429 0-.77.182-1.022.546-.243.364-.364.91-.364 1.638 0 .737.121 1.288.364 1.652.252.364.593.546 1.022.546z" fill="#191018"/></svg>