<svg width="22" height="25" fill="none" xmlns="http://www.w3.org/2000/svg"><path fill-rule="evenodd" clip-rule="evenodd" d="M10.85 14.406a4.6 4.6 0 001.692-.319 4.433 4.433 0 001.435-.913 4.2 4.2 0 00.957-1.367c.222-.512.336-1.06.335-1.614a4.23 4.23 0 00-1.276-3.04A4.654 4.654 0 0010.85 5.83a4.601 4.601 0 00-1.693.319 4.433 4.433 0 00-1.435.913c-.41.391-.737.856-.958 1.367a4.035 4.035 0 00-.335 1.614 4.337 4.337 0 001.307 3.013 4.764 4.764 0 003.114 1.35zM3.43 2.97C5.398 1.095 8.067.04 10.85.042c2.782 0 5.45 1.054 7.418 2.93 1.968 1.875 3.073 4.419 3.073 7.071s-1.106 5.196-3.073 7.071l-7.418 7.073-7.42-7.073c-1.9-1.909-2.96-4.44-2.96-7.071C.47 7.41 1.53 4.88 3.43 2.97z" fill="#fff"/></svg>