<svg width="24" height="23" fill="none" xmlns="http://www.w3.org/2000/svg"><path d="M13.858 16.073l2.559-2.206a.792.792 0 01.295-.168.828.828 0 01.344-.032l.426.2 5.962 2.606c.426.2.426.401.426.802a4.833 4.833 0 01-.463 1.966 5.098 5.098 0 01-1.237 1.642 6.162 6.162 0 01-2.062 1.23 6.46 6.46 0 01-2.41.37 13.624 13.624 0 01-5.962-1.403 27.961 27.961 0 01-5.97-4.005 34.124 34.124 0 01-3.194-4.41 26.95 26.95 0 01-2.129-4.41 11.64 11.64 0 01-.426-3.807 5.144 5.144 0 011.491-3.006A6.722 6.722 0 015.553.038c.165.003.327.04.474.11.148.07.277.169.378.291l3.194 5.612a.685.685 0 00.213.401.695.695 0 01-.034.323.73.73 0 01-.179.279L6.831 9.459a.858.858 0 000 1.002 19.286 19.286 0 002.555 3.207 21.309 21.309 0 003.407 2.605c.424.2.852.2 1.065-.2z" fill="#F8EEEF"/></svg>