<svg width="110" height="86" fill="none" xmlns="http://www.w3.org/2000/svg"><path d="M46.946 6.132L42.956 0C15.343 18.549 0 41.084 0 59.633 0 77.569 13.194 86 24.393 86 38.508 86 48.48 74.043 48.48 61.472c0-10.577-6.75-19.622-15.802-22.994-2.608-.92-5.063-1.687-5.063-6.132 0-5.672 4.142-14.104 19.33-26.214zm60.906 0L103.863 0C76.555 18.549 60.907 41.084 60.907 59.633c0 17.936 13.5 26.367 24.7 26.367C99.874 86 110 74.043 110 61.472c0-10.577-6.904-19.622-16.262-22.994-2.608-.92-4.91-1.687-4.91-6.132 0-5.672 4.296-14.104 19.024-26.214z" fill="#FEC5CE"/></svg>