<svg width="24" height="23" fill="none" xmlns="http://www.w3.org/2000/svg"><path d="M11.997 8.124c-2.203 0-4.002 1.672-4.002 3.72 0 2.049 1.799 3.72 4.002 3.72 2.204 0 4.002-1.671 4.002-3.72 0-2.048-1.799-3.72-4.002-3.72zm12.002 3.72c0-1.54.015-3.067-.078-4.604-.093-1.786-.531-3.372-1.936-4.678-1.408-1.308-3.11-1.713-5.032-1.8C15.296.676 13.654.69 12 .69c-1.657 0-3.3-.014-4.953.072-1.922.087-3.627.494-5.032 1.8C.607 3.872.172 5.454.08 7.24-.014 8.78 0 10.307 0 11.844c0 1.538-.015 3.067.078 4.605.093 1.786.531 3.371 1.936 4.677 1.408 1.309 3.11 1.714 5.032 1.8 1.658.087 3.3.074 4.954.074 1.657 0 3.3.014 4.953-.073 1.922-.086 3.627-.494 5.032-1.8 1.408-1.309 1.843-2.891 1.936-4.677.096-1.538.078-3.064.078-4.605zm-12.002 5.724c-3.407 0-6.157-2.556-6.157-5.724 0-3.167 2.75-5.723 6.157-5.723s6.157 2.556 6.157 5.723c0 3.168-2.75 5.724-6.157 5.724zm6.41-10.345c-.796 0-1.439-.597-1.439-1.337s.643-1.337 1.438-1.337c.796 0 1.438.598 1.438 1.337 0 .176-.037.35-.109.512-.072.162-.178.31-.311.434a1.448 1.448 0 01-.467.29 1.531 1.531 0 01-.55.1z" fill="#F8EEEF"/></svg>